<?xml version="1.0" encoding="UTF-8" standalone="no"?>
<!-- Created with Inkscape (http://www.inkscape.org/) -->
<svg id="svg2" xmlns:rdf="http://www.w3.org/1999/02/22-rdf-syntax-ns#" xmlns="http://www.w3.org/2000/svg" height="105.33" width="79.453" version="1.1" xmlns:cc="http://creativecommons.org/ns#" xmlns:dc="http://purl.org/dc/elements/1.1/">
 <metadata id="metadata7">
  <rdf:RDF>
   <cc:Work rdf:about="">
    <dc:format>image/svg+xml</dc:format>
    <dc:type rdf:resource="http://purl.org/dc/dcmitype/StillImage"/>
    <dc:title/>
   </cc:Work>
  </rdf:RDF>
 </metadata>
 <g id="layer1" transform="translate(-371.5759,-294.22491)">
  <g id="text2985" style="letter-spacing:0px;word-spacing:0px;" font-weight="normal" font-size="144px" font-style="normal" font-stretch="normal" line-height="125%" font-variant="normal" font-family="Roboto Light" fill="#556b2f">
   <path id="path3760" style="" d="m451.03,355.26c-0.00009,13.219-3.6212,23.906-10.863,32.062-7.2423,8.1563-16.957,12.234-29.145,12.234-12,0-21.574-4.0781-28.723-12.234-7.1484-8.1562-10.723-18.844-10.723-32.062v-16.664c-0.00001-13.172,3.5625-23.859,10.688-32.062,7.125-8.203,16.687-12.305,28.688-12.305,12.187,0.00011,21.914,4.1017,29.18,12.305,7.2656,8.2032,10.898,18.891,10.898,32.062zm-8.3672-16.805c-0.00008-11.062-2.8008-19.969-8.4023-26.719-5.6016-6.7499-13.371-10.125-23.309-10.125-9.75,0.00009-17.344,3.3751-22.781,10.125-5.4375,6.7501-8.1563,15.656-8.1562,26.719v16.805c-0.00002,11.156,2.7304,20.109,8.1914,26.859,5.4609,6.75,13.066,10.125,22.816,10.125,9.9843,0.00001,17.754-3.3633,23.309-10.09,5.5546-6.7265,8.332-15.691,8.332-26.895z"/>
  </g>
  <path id="path3757" d="m61.429,61.042a13.571,17.143,0,1,1,-27.143,0,13.571,17.143,0,1,1,27.143,0z" fill-rule="nonzero" transform="matrix(0.34965534,0.65589274,-0.58731038,0.54346915,417.83609,254.98922)" fill="#F00"/>
 </g>
</svg>
